<svg xmlns="http://www.w3.org/2000/svg" xmlns:xlink="http://www.w3.org/1999/xlink" width="2560" zoomAndPan="magnify" viewBox="0 0 1920 1079.999946" height="1440" preserveAspectRatio="xMidYMid meet" version="1.0"><defs><g/></defs><g fill="#fa0000" fill-opacity="1"><g transform="translate(140.265803, 681.522776)"><g><path d="M -22.859375 -349.28125 L 146.640625 -362.3125 L 150.484375 -312.453125 L 93.15625 -308.046875 L 116.15625 -8.9375 L 61.3125 -4.71875 L 38.3125 -303.828125 L -19.015625 -299.421875 Z M -22.859375 -349.28125 "/></g></g></g><g fill="#fa0000" fill-opacity="1"><g transform="translate(326.998864, 667.134135)"><g><path d="M 134.796875 -7.40625 C 134.003906 -9.707031 133.21875 -11.835938 132.4375 -13.796875 C 131.664062 -15.753906 130.945312 -18.21875 130.28125 -21.1875 C 129.613281 -24.15625 129.066406 -27.960938 128.640625 -32.609375 C 128.222656 -37.265625 127.820312 -43.085938 127.4375 -50.078125 L 124.421875 -105 C 123.523438 -121.300781 120.0625 -132.625 114.03125 -138.96875 C 108.007812 -145.3125 98.675781 -148.132812 86.03125 -147.4375 L 67.0625 -146.40625 L 74.890625 -4.125 L 19.96875 -1.09375 L 0.75 -350.5625 L 83.625 -355.125 C 112.25 -356.695312 133.332031 -351.175781 146.875 -338.5625 C 160.425781 -325.957031 167.941406 -306.175781 169.421875 -279.21875 L 170.9375 -251.765625 C 172.90625 -215.816406 162.222656 -191.523438 138.890625 -178.890625 C 153.179688 -174.003906 163.253906 -165.296875 169.109375 -152.765625 C 174.972656 -140.234375 178.410156 -124.816406 179.421875 -106.515625 L 182.390625 -52.59375 C 182.859375 -43.9375 183.601562 -36.378906 184.625 -29.921875 C 185.65625 -23.472656 187.6875 -16.992188 190.71875 -10.484375 Z M 58.421875 -303.671875 L 64.328125 -196.328125 L 85.796875 -197.5 C 96.109375 -198.070312 104.023438 -201.179688 109.546875 -206.828125 C 115.078125 -212.472656 117.460938 -222.285156 116.703125 -236.265625 L 114.796875 -270.703125 C 114.109375 -283.359375 111.363281 -292.390625 106.5625 -297.796875 C 101.757812 -303.210938 94.53125 -305.65625 84.875 -305.125 Z M 58.421875 -303.671875 "/></g></g></g><g fill="#fa0000" fill-opacity="1"><g transform="translate(536.80149, 655.689636)"><g><path d="M 197.90625 -6.28125 L 142.421875 -4.515625 L 130.921875 -67.6875 L 63.453125 -65.546875 L 55.96875 -1.78125 L 5.5 -0.171875 L 50.375 -351.78125 L 130.828125 -354.328125 Z M 68.953125 -113.234375 L 121.921875 -114.921875 L 89.828125 -291 Z M 68.953125 -113.234375 "/></g></g></g><g fill="#fa0000" fill-opacity="1"><g transform="translate(750.032509, 649.486765)"><g><path d="M 15.015625 -350.25 L 70 -351.03125 L 74.984375 -1.0625 L 20 -0.28125 Z M 15.015625 -350.25 "/></g></g></g><g fill="#fa0000" fill-opacity="1"><g transform="translate(855.075439, 647.779568)"><g><path d="M 20.484375 -349.96875 L 75.484375 -349.890625 L 75.0625 -49.890625 L 165.5625 -49.765625 L 165.5 0.234375 L 20 0.03125 Z M 20.484375 -349.96875 "/></g></g></g><g fill="#fa0000" fill-opacity="1"><g transform="translate(1034.111797, 648.113844)"><g><path d="M 79.109375 -192.859375 L 150.09375 -191.359375 L 149.03125 -141.375 L 78.046875 -142.875 L 74.984375 1.59375 L 20 0.421875 L 27.421875 -349.5 L 172.890625 -346.40625 L 171.828125 -296.421875 L 81.34375 -298.34375 Z M 79.109375 -192.859375 "/></g></g></g><g fill="#fa0000" fill-opacity="1"><g transform="translate(1215.60497, 652.07245)"><g><path d="M 34.34375 -348.875 L 89.296875 -346.625 L 76.984375 -46.875 L 167.40625 -43.171875 L 165.359375 6.78125 L 19.984375 0.828125 Z M 34.34375 -348.875 "/></g></g></g><g fill="#fa0000" fill-opacity="1"><g transform="translate(1394.98989, 659.806468)"><g><path d="M 39.78125 -348.3125 L 94.6875 -345.1875 L 74.875 4.25 L 19.96875 1.125 Z M 39.78125 -348.3125 "/></g></g></g><g fill="#fa0000" fill-opacity="1"><g transform="translate(1499.601136, 665.284929)"><g><path d="M 229.0625 -333.8125 L 159.03125 -168.59375 L 206.921875 15.5 L 149.078125 11.171875 L 114.546875 -130.296875 L 58.828125 4.40625 L 7.484375 0.5625 L 82.25 -174.34375 L 37.609375 -348.15625 L 94.453125 -343.90625 L 126.1875 -212.15625 L 178.21875 -337.625 Z M 229.0625 -333.8125 "/></g></g></g></svg>